<svg xmlns="http://www.w3.org/2000/svg" xmlns:xlink="http://www.w3.org/1999/xlink" version="1.1" x="0px" y="0px"
    viewBox="0 0 100 125" enable-background="new 0 0 100 100" xml:space="preserve">
    <path
        d="M76.037,61.48c-2.702-3.04-6.368-5.001-10.33-5.634V41.861c0-0.908-0.736-1.644-1.644-1.644h-3.812V27.036
          c0-9.717-7.906-17.623-17.623-17.623c-9.717,0-17.623,7.906-17.623,17.623v6.091c0,0.908,0.736,1.644,1.644,1.644
            s1.644-0.736,1.644-1.644v-6.091c0-7.904,6.431-14.335,14.335-14.335c7.904,0,14.335,6.43,14.335,14.335v13.181h-35.77
              c-0.908,0-1.643,0.736-1.643,1.644l0,27.063c0,0.001,0,0.002,0,0.003v0.011c0,3.199,2.602,5.801,5.801,5.801H45.55 
               c0.832,8.876,8.318,15.847,17.408,15.847c9.048,0,16.532-6.783,17.408-15.777c0.055-0.566,0.083-1.143,0.083-1.715 
                C80.45,68.808,78.883,64.683,76.037,61.48z M22.838,68.938V58.62c0-0.001,0-0.001,0-0.002l0-15.113H62.42v12.126 
                 c-8.844,0.271-16.054,7.122-16.869,15.82H25.351C23.965,71.452,22.838,70.324,22.838,68.938z
                  M77.095,74.491
                    c-0.711,7.302-6.788,12.808-14.136,12.808c-7.832,0-14.204-6.372-14.204-14.204s6.372-14.204,14.204-14.204
                      c4.054,0,7.925,1.74,10.621,4.773c2.31,2.6,3.583,5.949,3.583,9.431C77.162,73.561,77.14,74.031,77.095,74.491z" />
    <path d="M71.694,67.39 c0.642,0.642,0.642,1.683,0,2.325l-10.64,10.64c-0.321,0.321-0.742,0.482-1.162,0.482s-0.841-0.161-1.162-0.482l-4.506-4.506
                          c-0.642-0.642-0.642-1.683,0-2.325c0.642-0.642,1.683-0.642,2.325,0l3.343,3.343l9.478-9.478
                            C70.012,66.748,71.052,66.748,71.694,67.39z" />
</svg>