<?xml version="1.0" encoding="UTF-8" standalone="no" ?>
<!DOCTYPE svg PUBLIC "-//W3C//DTD SVG 1.1//EN" "http://www.w3.org/Graphics/SVG/1.1/DTD/svg11.dtd">
<svg xmlns="http://www.w3.org/2000/svg" xmlns:xlink="http://www.w3.org/1999/xlink" version="1.1" width="1080" height="1080" viewBox="0 0 1080 1080" xml:space="preserve">
<desc>Created with Fabric.js 5.2.4</desc>
<defs>
</defs>
<rect x="0" y="0" width="100%" height="100%" fill="transparent"></rect>
<g transform="matrix(1 0 0 1 540 540)" id="57d76f27-f227-4fc7-8429-5790ccbcd9c2"  >
</g>
<g transform="matrix(1 0 0 1 540 540)" id="8bb6be37-c998-43d7-a1b2-37805f4e3088"  >
<rect style="stroke: none; stroke-width: 1; stroke-dasharray: none; stroke-linecap: butt; stroke-dashoffset: 0; stroke-linejoin: miter; stroke-miterlimit: 4; fill: rgb(255,255,255); fill-rule: nonzero; opacity: 1; visibility: hidden;" vector-effect="non-scaling-stroke"  x="-540" y="-540" rx="0" ry="0" width="1080" height="1080" />
</g>
<g transform="matrix(10.8 0 0 10.8 576.14 662.49)"  >
<g style=""   >
		<g transform="matrix(1 0 0 1 0 -12.5)"  >
<path style="stroke: none; stroke-width: 1; stroke-dasharray: none; stroke-linecap: butt; stroke-dashoffset: 0; stroke-linejoin: miter; stroke-miterlimit: 4; fill: rgb(0,0,0); fill-rule: nonzero; opacity: 1;" vector-effect="non-scaling-stroke"  transform=" translate(-50, -50)" d="M 76.037 61.48 C 73.33500000000001 58.44 69.66900000000001 56.479 65.70700000000001 55.846 L 65.70700000000001 41.861 C 65.70700000000001 40.952999999999996 64.971 40.217 64.063 40.217 L 60.251000000000005 40.217 L 60.251000000000005 27.036 C 60.251000000000005 17.319000000000003 52.345000000000006 9.413 42.628 9.413 C 32.911 9.413 25.005 17.319 25.005 27.036 L 25.005 33.127 C 25.005 34.035000000000004 25.741 34.771 26.648999999999997 34.771 C 27.556999999999995 34.771 28.292999999999996 34.035000000000004 28.292999999999996 33.127 L 28.292999999999996 27.036 C 28.292999999999996 19.132 34.724 12.701 42.628 12.701 C 50.532 12.701 56.963 19.131 56.963 27.036 L 56.963 40.217 L 21.192999999999998 40.217 C 20.284999999999997 40.217 19.549999999999997 40.952999999999996 19.549999999999997 41.861 L 19.549999999999997 68.92399999999999 C 19.549999999999997 68.925 19.549999999999997 68.92599999999999 19.549999999999997 68.92699999999999 L 19.549999999999997 68.93799999999999 C 19.549999999999997 72.13699999999999 22.151999999999997 74.73899999999999 25.351 74.73899999999999 L 45.55 74.73899999999999 C 46.382 83.615 53.867999999999995 90.58599999999998 62.958 90.58599999999998 C 72.006 90.58599999999998 79.49 83.80299999999998 80.366 74.80899999999998 C 80.421 74.24299999999998 80.449 73.66599999999998 80.449 73.09399999999998 C 80.45 68.808 78.883 64.683 76.037 61.48 z M 22.838 68.938 L 22.838 58.62 C 22.838 58.619 22.838 58.619 22.838 58.617999999999995 L 22.838 43.504999999999995 L 62.42 43.504999999999995 L 62.42 55.63099999999999 C 53.576 55.901999999999994 46.366 62.75299999999999 45.551 71.451 L 25.351 71.451 C 23.965 71.452 22.838 70.324 22.838 68.938 z M 77.095 74.491 C 76.384 81.793 70.307 87.299 62.959 87.299 C 55.127 87.299 48.755 80.927 48.755 73.095 C 48.755 65.26299999999999 55.127 58.891 62.959 58.891 C 67.013 58.891 70.884 60.631 73.58 63.664 C 75.89 66.264 77.163 69.613 77.163 73.095 C 77.162 73.561 77.14 74.031 77.095 74.491 z" stroke-linecap="round" />
</g>
		<g transform="matrix(1 0 0 1 13 10.5)"  >
<path style="stroke: rgb(0,0,0); stroke-width: 3; stroke-dasharray: none; stroke-linecap: round; stroke-dashoffset: 0; stroke-linejoin: miter; stroke-miterlimit: 4; fill: rgb(0,0,0); fill-rule: nonzero; opacity: 1;" vector-effect="non-scaling-stroke"  transform=" translate(-63, -73)" d="M 58 68 L 68 78 M 68 68 L 58 78" stroke-linecap="round" />
</g>
</g>
</g>
<g transform="matrix(1.97 0 0 1.97 719.9 782.65)"  >
<path style="stroke: rgb(0,0,0); stroke-width: 0; stroke-dasharray: none; stroke-linecap: butt; stroke-dashoffset: 0; stroke-linejoin: miter; stroke-miterlimit: 4; fill: rgb(0,0,0); fill-rule: nonzero; opacity: 1;" vector-effect="non-scaling-stroke"  transform=" translate(-50, -50)" d="M 16.28 19.945 L 19.957 16.32 C 22.060000000000002 14.166 25.578000000000003 14.166 27.681 16.32 L 50.007000000000005 38.595 L 72.333 16.32 C 74.43599999999999 14.166 77.954 14.166 80.054 16.32 L 83.68 19.945 C 85.834 22.046 85.834 25.566000000000003 83.68 27.668 L 61.405 49.993 L 83.68 72.32 C 85.834 74.422 85.834 77.939 83.68 80.04299999999999 L 80.054 83.72099999999999 C 77.95400000000001 85.82 74.436 85.82 72.333 83.72099999999999 L 50.007 61.393 L 27.681 83.721 C 25.578 85.82000000000001 22.060000000000002 85.82000000000001 19.957 83.721 L 16.28 80.043 C 14.180000000000001 77.93900000000001 14.180000000000001 74.42200000000001 16.28 72.32000000000001 L 38.606 49.99300000000001 L 16.28 27.667 C 14.18 25.566 14.18 22.046 16.28 19.945 z" stroke-linecap="round" />
</g>
<g transform="matrix(0 -1 1.52 0 324.21 387.86)"  >
<path style="stroke: rgb(0,0,0); stroke-width: 0; stroke-dasharray: none; stroke-linecap: butt; stroke-dashoffset: 0; stroke-linejoin: miter; stroke-miterlimit: 4; fill: rgb(0,0,0); fill-rule: nonzero; opacity: 1;" vector-effect="non-scaling-stroke"  transform=" translate(-50, -50)" d="M 94.75 50 C 94.75 56.213 89.514 61.25 83.054 61.25 L 16.946 61.25 C 10.486 61.25 5.25 56.213 5.25 50 L 5.25 50 C 5.25 43.787 10.486 38.75 16.945999999999998 38.75 L 83.053 38.75 C 89.514 38.75 94.75 43.787 94.75 50 L 94.75 50 z" stroke-linecap="round" />
</g>
</svg>